<svg xmlns="http://www.w3.org/2000/svg" viewBox="0 0 471.41 143.01"><defs><style>.cls-1{fill:#f7a800;}.cls-2{fill:#e75300;}.cls-3{fill:#969300;}.cls-4,.cls-5{fill:#636466;}.cls-4{fill-rule:evenodd;}</style></defs><title>tsc-logo</title><g id="Layer_2" data-name="Layer 2"><g id="tsc-logo"><g id="smoothie"><path class="cls-1" d="M130.85,71.53c4.1,0,6.21,2.4,6.21,6.61V79h-4V77.87c0-1.88-.77-2.59-2.11-2.59s-2.11.71-2.11,2.59c0,5.41,8.24,6.42,8.24,13.93,0,4.2-2.15,6.61-6.29,6.61s-6.29-2.4-6.29-6.61V90.19h4v1.88c0,1.88.84,2.56,2.18,2.56s2.19-.68,2.19-2.56c0-5.41-8.24-6.42-8.24-13.93,0-4.2,2.11-6.61,6.21-6.61"/><polygon class="cls-1" points="149.98 90.49 152.86 71.83 158.72 71.83 158.72 98.11 154.73 98.11 154.73 79.26 151.82 98.11 147.83 98.11 144.69 79.52 144.69 98.11 141.01 98.11 141.01 71.83 146.87 71.83 149.98 90.49"/><path class="cls-1" d="M167.19,92.06c0,1.88.85,2.59,2.19,2.59s2.19-.71,2.19-2.59V77.87c0-1.88-.84-2.59-2.19-2.59s-2.19.71-2.19,2.59ZM163,78.13c0-4.2,2.26-6.61,6.4-6.61s6.4,2.4,6.4,6.61V91.8c0,4.2-2.26,6.61-6.4,6.61S163,96,163,91.8Z"/><path class="cls-1" d="M183.91,92.06c0,1.88.84,2.59,2.19,2.59s2.19-.71,2.19-2.59V77.87c0-1.88-.84-2.59-2.19-2.59s-2.19.71-2.19,2.59Zm-4.22-13.93c0-4.2,2.26-6.61,6.4-6.61s6.4,2.4,6.4,6.61V91.8c0,4.2-2.26,6.61-6.4,6.61s-6.4-2.4-6.4-6.61Z"/><polygon class="cls-1" points="195.52 71.83 208.56 71.83 208.56 75.58 204.15 75.58 204.15 98.11 199.93 98.11 199.93 75.58 195.52 75.58 195.52 71.83"/><polygon class="cls-1" points="216.15 98.11 211.93 98.11 211.93 71.83 216.15 71.83 216.15 83.09 220.94 83.09 220.94 71.83 225.24 71.83 225.24 98.11 220.94 98.11 220.94 86.85 216.15 86.85 216.15 98.11"/><rect class="cls-1" x="229.83" y="71.83" width="4.22" height="26.28"/><polygon class="cls-1" points="242.87 82.9 248.66 82.9 248.66 86.66 242.87 86.66 242.87 94.36 250.15 94.36 250.15 98.11 238.65 98.11 238.65 71.83 250.15 71.83 250.15 75.58 242.87 75.58 242.87 82.9"/></g><g id="cafe"><path class="cls-2" d="M304.88,61.25V74c0,15.34-7.83,24.11-22.94,24.11S259,89.33,259,74V24.11C259,8.77,266.83,0,281.94,0s22.94,8.77,22.94,24.11v9.32H290.33V23.16c0-6.85-3.08-9.46-8-9.46s-8,2.61-8,9.46V74.95c0,6.85,3.08,9.32,8,9.32s8-2.47,8-9.32V61.25Z"/><path class="cls-2" d="M328.71,66.59h14.83l-7.41-48.51ZM363.82,97H348.3l-2.66-17.4H326.75L324.09,97H310L325.63,1.1h22.52Z"/><polygon class="cls-2" points="388.17 43.71 408.03 43.71 408.03 57.41 388.17 57.41 388.17 97.01 372.78 97.01 372.78 1.1 413.49 1.1 413.49 14.8 388.17 14.8 388.17 43.71"/><polygon class="cls-2" points="436.99 41.52 458.12 41.52 458.12 55.22 436.99 55.22 436.99 83.31 463.57 83.31 463.57 97.01 421.6 97.01 421.6 1.1 463.57 1.1 463.57 14.8 436.99 14.8 436.99 41.52"/></g><g id="tropical"><path class="cls-3" d="M20.93,58.2a5.58,5.58,0,0,1-1.55,2l0,0a3.37,3.37,0,0,1-2.42.79c-1.11,0-1.44-.34-1.62-.68l0-.06a7.33,7.33,0,0,1-.62-3.69V22.52h6.93V18.57H14.65V3.48L5,8,4.94,18.57H0v3.95H4.79V57c0,3.19.72,5.37,2.21,6.67s4,2,7.44,2c3.32,0,5.69-.62,7.23-1.9a11.2,11.2,0,0,0,3.18-4.11l.44-1L21.4,57Z"/><path class="cls-3" d="M50.51,17.55a8.71,8.71,0,0,0-5.84,2.22,10,10,0,0,0-1.59,1.67l0-3.21-15.81.22V22.2h6V61.62h-6v3.83H48.9V61.5H43V41.05a39.87,39.87,0,0,1,2.14-13.74h0c1.48-4.18,2.67-5,3.13-5.19a3.48,3.48,0,0,1,.11.49L48,26.1l0,.13a4.44,4.44,0,0,0,4.74,4h.42a4.15,4.15,0,0,0,3.52-1.63,6.16,6.16,0,0,0,1-3.71A7.71,7.71,0,0,0,56,19.71a6.89,6.89,0,0,0-5.48-2.16"/><path class="cls-3" d="M69.89,51.29c-.24-2.42-.36-5.26-.36-8.43V40.71A57.57,57.57,0,0,1,71,26v0c1-4,3-4.49,4.44-4.49.8,0,3.25,0,4.52,4.52a57.72,57.72,0,0,1,1.48,14.69v2.15c0,6.26-.5,11.2-1.48,14.69-1.27,4.52-3.71,4.52-4.52,4.52s-3.25,0-4.52-4.51a39.79,39.79,0,0,1-1-6.26m5.78-33.74c-5,0-9.08,2.39-12.21,7.12S58.95,35,58.95,41.79s1.44,12.58,4.29,17.1c3,4.73,7,7.13,12,7.13s9.08-2.39,12.2-7.11c3-4.57,4.59-10.33,4.59-17.12s-1.44-12.58-4.29-17.1c-3-4.74-7-7.14-12.07-7.14"/><path class="cls-3" d="M108.81,41.92c0-6.74.53-12,1.58-15.54h0c1.24-4.47,3.51-4.47,4.26-4.47,1.71,0,3,1.56,3.76,4.63a68.75,68.75,0,0,1,1.24,14.76v.64a66.58,66.58,0,0,1-1.38,15.15v0c-1.07,4.74-3.14,4.74-3.83,4.74s-2.77,0-4.06-4.13a44.18,44.18,0,0,1-1.58-13Zm7.41-24.36a11.18,11.18,0,0,0-5.72,1.39,8,8,0,0,0-1.56,1.17l.06-1.89-16,.23v3.8h6.07v53.1H92.74v4h22.19v-4h-6.13V64.08a8.77,8.77,0,0,0,1.4.8A13.25,13.25,0,0,0,115.77,66c4.64,0,8.31-2.33,10.91-6.93v0c2.35-4.34,3.55-10,3.55-16.91,0-7.34-1.13-13.25-3.37-17.58-2.34-4.67-5.92-7-10.65-7"/><polygon class="cls-3" points="147.88 18.23 132.02 18.46 132.02 22.2 138.16 22.2 138.16 61.62 132.02 61.62 132.02 65.45 153.6 65.45 153.6 61.5 147.88 61.5 147.88 18.23"/><path class="cls-3" d="M183.18,48.15a30.61,30.61,0,0,1-1.38,5.07,28.57,28.57,0,0,1-2.2,4.63c-1.58,2.67-3.48,4-5.79,4-2.6,0-4.49-1.64-5.78-5a32.11,32.11,0,0,1-1.59-6.46,57.63,57.63,0,0,1-.56-8.48,53.53,53.53,0,0,1,1.82-15.37c1.6-5,4.06-5,4.86-5A3.84,3.84,0,0,1,175.88,23l0,0a4.86,4.86,0,0,1,.9,3.14c0,.22,0,.46,0,.71s-.06.52-.1.79l0,.11v.11c.25,3.87,3,4.45,4.64,4.45h.56c3.08-.27,4.78-1.93,4.66-4.55a8.38,8.38,0,0,0-1.32-4.35,10.57,10.57,0,0,0-3.47-3.23,17.78,17.78,0,0,0-9.42-2.62c-4.92,0-9.06,2.48-12.31,7.37-3.12,4.69-4.7,10.47-4.7,17.18s1.49,12.27,4.42,16.79c3.07,4.73,7.08,7.12,11.94,7.12a12.74,12.74,0,0,0,10.09-4.51c2.44-2.8,4.33-7,5.6-12.43l.23-1-4.16-1.29Z"/><path class="cls-3" d="M202.06,59.5a28,28,0,0,1-.75-7,20.83,20.83,0,0,1,1.06-7.67v0a2.56,2.56,0,0,1,1-1.35l2.33-1.23,0,0a10.4,10.4,0,0,1,2.45-.92c.9-.22,1.67-.39,2.29-.5v6.93a23.25,23.25,0,0,1-2,9.93c-1.74,3.8-3.73,3.8-4.38,3.8-.43,0-1.43,0-2-2m18.62,1.44c-.22-.29-.58-1.09-.58-3.12V32.4c0-4.8-1.09-8.51-3.25-11s-5.69-3.82-10.54-3.82c-3.94,0-7.09.79-9.36,2.34h0a7.41,7.41,0,0,0-3.42,6.52v0c.13,2.23,1.77,3.5,4.5,3.5h.43a4.69,4.69,0,0,0,3.38-1.13A3.85,3.85,0,0,0,203,26v-.44a4.64,4.64,0,0,1,.89-3.24,4.56,4.56,0,0,1,3-.76,2.55,2.55,0,0,1,2.59,1.62,17.63,17.63,0,0,1,1,6.75v6.51a47.26,47.26,0,0,1-5.83,1.51c-1.15.21-2.25.43-3.28.64s-2,.43-3,.64a8.44,8.44,0,0,0-5.71,4.42,18.41,18.41,0,0,0-1.84,8.75c0,4.11.73,7.38,2.16,9.74,1.53,2.64,4.16,4,7.82,4a16.77,16.77,0,0,0,6.51-1.25h0a11.9,11.9,0,0,0,3.7-2.55,6,6,0,0,0,1.68,1.84l0,0c1.34.88,3.38,1.3,6.22,1.3h6.93V61.5h-2.86c-1.19,0-2-.2-2.28-.56"/><polygon class="cls-3" points="244.51 61.5 244.51 0.17 228.57 0.39 228.57 4.13 234.79 4.13 234.79 61.62 228.57 61.62 228.57 65.45 250.15 65.45 250.15 61.5 244.51 61.5"/><path class="cls-3" d="M148.65,5.8c0,3.12-2.84,5.64-6.33,5.64S136,8.92,136,5.8,138.82.17,142.31.17s6.33,2.52,6.33,5.64"/></g><g id="eatbetterfeelbetter"><path class="cls-4" d="M242,139.53c-2.34-.44-4.17-.85-5.46-1.22a7.45,7.45,0,0,0,2.77-5.78,5.49,5.49,0,0,0-1.4-3.79,5.19,5.19,0,0,0-7.53,0,5.65,5.65,0,0,0-1.44,3.87,7.35,7.35,0,0,0,2.21,5.51,26.51,26.51,0,0,1-5.67,1.77c-.64.07-1.3.11-2,.12-3.53-.1-5.92-1.15-7.29-3.2h0C215,135,214.38,132,214.39,128c0,0,0-3.51,0-5,2.34.44,4.17.84,5.45,1.22a7.47,7.47,0,0,0-2.77,5.78,5.44,5.44,0,0,0,1.4,3.78,4.79,4.79,0,0,0,3.73,1.6,4.89,4.89,0,0,0,3.81-1.63,5.65,5.65,0,0,0,1.44-3.87,7.33,7.33,0,0,0-2.21-5.51,25.61,25.61,0,0,1,5.67-1.76,18.33,18.33,0,0,1,2-.12c3.54.1,5.92,1.14,7.29,3.19h0c1.25,1.83,1.87,4.82,1.86,8.88,0,0,0,3.52,0,5m-8.17-2.46a4.93,4.93,0,0,1-2.36-4.4,3.18,3.18,0,0,1,.77-2.18,2.44,2.44,0,0,1,1.94-.81,2.29,2.29,0,0,1,1.83.8,3,3,0,0,1,.73,2.05c0,1.8-1,3.28-2.91,4.54M222.56,125.4a4.93,4.93,0,0,1,2.37,4.39,3.13,3.13,0,0,1-.77,2.18,2.39,2.39,0,0,1-1.94.81,2.26,2.26,0,0,1-1.83-.79,3,3,0,0,1-.73-2.06c0-1.79,1-3.28,2.9-4.53m19.7-1.34h0c-1.95-2.76-5.26-4.17-9.85-4.18a19.18,19.18,0,0,0-8.25,1.78c-.56.23-1.1.48-1.63.75a18,18,0,0,0-4.68-1.31A24.36,24.36,0,0,1,213.2,120l-1.32-.55,0,8.51c0,4.75.75,8.16,2.34,10.44h0c2,2.77,5.26,4.18,9.85,4.18a19,19,0,0,0,8.26-1.78c.55-.22,1.1-.47,1.62-.73a18.74,18.74,0,0,0,4.68,1.3,24,24,0,0,1,4.64,1.1l1.31.54,0-8.51c0-4.74-.75-8.16-2.33-10.44"/><path class="cls-5" d="M367.39,125.46v0a2.51,2.51,0,0,1,5,0h0a2.51,2.51,0,0,1-5,0Zm4.74,0h0a2.22,2.22,0,1,0-4.45,0v0a2.19,2.19,0,0,0,2.21,2.22A2.21,2.21,0,0,0,372.12,125.45ZM368.87,124h1.19a1.13,1.13,0,0,1,.83.29.81.81,0,0,1,.22.58h0a.83.83,0,0,1-.57.83l.65,1h-.68l-.57-.86h-.46v.86h-.59Zm1.18,1.31c.3,0,.46-.16.46-.38h0c0-.26-.18-.39-.47-.39h-.57v.78Z"/><path class="cls-5" d="M100.43,139.53a6.06,6.06,0,0,0,4.87-2.23l.07-.08-1.73-1.54-.07.07a4.15,4.15,0,0,1-3.09,1.37,3.15,3.15,0,0,1-3.24-2.75h8.57v-.16c0-.24,0-.47,0-.7,0-3.19-1.77-6.4-5.72-6.4a5.89,5.89,0,0,0-5.83,6.2v0A6,6,0,0,0,100.43,139.53Zm-.31-10a2.89,2.89,0,0,1,2.85,2.86H97.21A3,3,0,0,1,100.12,129.51Z"/><path class="cls-5" d="M111.82,139.51a4.86,4.86,0,0,0,3.7-1.53v1.28h2.83v-7a5,5,0,0,0-1.29-3.69,5.39,5.39,0,0,0-4-1.34,10.12,10.12,0,0,0-4.45,1l-.09,0,.78,2.31.11,0a8,8,0,0,1,3.3-.72c1.83,0,2.79.84,2.79,2.44v.14a9.89,9.89,0,0,0-3-.45c-3.09,0-4.94,1.45-4.94,3.88v0C107.57,138.34,109.77,139.51,111.82,139.51Zm-1.42-3.83v0c0-1.15,1-1.84,2.64-1.84a7.34,7.34,0,0,1,2.55.43v.72c0,1.39-1.27,2.39-3,2.39C111.26,137.34,110.4,136.68,110.4,135.67Z"/><path class="cls-5" d="M127.8,138.82v-2.44l-.16.08a3.48,3.48,0,0,1-1.61.39c-.91,0-1.33-.43-1.33-1.35v-5.63h3.15v-2.52H124.7v-3.21h-2.9v3.21h-1.48v2.52h1.48v6.05c0,2.35,1.17,3.55,3.48,3.55a4.74,4.74,0,0,0,2.47-.61Z"/><path class="cls-5" d="M139.9,137.65a4.79,4.79,0,0,0,3.88,1.85c2.75,0,5.54-2.12,5.54-6.18v0c0-4.06-2.79-6.18-5.54-6.18a4.69,4.69,0,0,0-3.88,2v-6.21H137v16.4h2.9Zm-.07-4.33v0a3.29,3.29,0,1,1,6.54,0v0a3.34,3.34,0,0,1-3.24,3.64A3.4,3.4,0,0,1,139.83,133.32Z"/><path class="cls-5" d="M157.12,139.53a6.06,6.06,0,0,0,4.87-2.23l.07-.08-1.73-1.54-.07.07a4.15,4.15,0,0,1-3.09,1.37,3.15,3.15,0,0,1-3.24-2.75h8.57v-.16c0-.24,0-.47,0-.7,0-3.19-1.77-6.4-5.72-6.4a5.89,5.89,0,0,0-5.83,6.2v0A6,6,0,0,0,157.12,139.53Zm-.31-10a2.89,2.89,0,0,1,2.85,2.86H153.9A3,3,0,0,1,156.81,129.51Z"/><path class="cls-5" d="M165.25,135.92c0,2.35,1.17,3.55,3.48,3.55a4.74,4.74,0,0,0,2.47-.61l.06,0v-2.44l-.16.08a3.48,3.48,0,0,1-1.61.39c-.91,0-1.33-.43-1.33-1.35v-5.63h3.15v-2.52h-3.15v-3.21h-2.9v3.21h-1.48v2.52h1.48Z"/><path class="cls-5" d="M174.36,135.92c0,2.35,1.17,3.55,3.48,3.55a4.74,4.74,0,0,0,2.47-.61l.06,0v-2.44l-.16.08a3.48,3.48,0,0,1-1.61.39c-.91,0-1.33-.43-1.33-1.35v-5.63h3.15v-2.52h-3.15v-3.21h-2.9v3.21h-1.48v2.52h1.48Z"/><path class="cls-5" d="M187.83,139.53a6.06,6.06,0,0,0,4.87-2.23l.07-.08L191,135.68l-.07.07a4.15,4.15,0,0,1-3.09,1.37,3.15,3.15,0,0,1-3.24-2.75h8.57v-.16c0-.24,0-.47,0-.7,0-3.19-1.77-6.4-5.72-6.4a5.89,5.89,0,0,0-5.83,6.2v0A6,6,0,0,0,187.83,139.53Zm-.31-10a2.89,2.89,0,0,1,2.85,2.86h-5.76A3,3,0,0,1,187.52,129.51Z"/><path class="cls-5" d="M198.64,134.7c0-2.87,1.41-4.52,3.88-4.52h.26v-3.05h-.11a4.13,4.13,0,0,0-4,2.47v-2.25h-2.9v11.92h2.9Z"/><rect class="cls-5" x="202.72" y="135.98" width="3.17" height="3.28"/><path class="cls-5" d="M257,122.95a3.64,3.64,0,0,0-2.72,1,4,4,0,0,0-1,3v.75h-1.49v2.46h1.49v9.4h2.9v-9.4h3.06v-2.44h-3.1v-.53c0-1.13.46-1.66,1.44-1.66a4.61,4.61,0,0,1,1.54.28l.14,0v-2.5l-.08,0A7.31,7.31,0,0,0,257,122.95Z"/><path class="cls-5" d="M266,127.32a5.89,5.89,0,0,0-5.83,6.2v0a6,6,0,0,0,6.12,6.18,6.06,6.06,0,0,0,4.87-2.23l.07-.08-1.73-1.54-.07.07a4.15,4.15,0,0,1-3.09,1.37,3.15,3.15,0,0,1-3.24-2.75h8.57v-.16c0-.24,0-.47,0-.7C271.73,130.53,270,127.32,266,127.32Zm0,2.41a2.89,2.89,0,0,1,2.85,2.86h-5.76A3,3,0,0,1,266,129.73Z"/><path class="cls-5" d="M279.4,127.32a5.89,5.89,0,0,0-5.83,6.2v0a6,6,0,0,0,6.12,6.18,6.06,6.06,0,0,0,4.87-2.23l.07-.08-1.73-1.54-.07.07a4.15,4.15,0,0,1-3.09,1.37,3.15,3.15,0,0,1-3.24-2.75h8.57v-.16c0-.24,0-.47,0-.7C285.11,130.53,283.35,127.32,279.4,127.32Zm0,2.41a2.89,2.89,0,0,1,2.85,2.86h-5.76A3,3,0,0,1,279.38,129.73Z"/><rect class="cls-5" x="287.75" y="123.08" width="2.9" height="16.4"/><path class="cls-5" d="M307.36,127.32a4.69,4.69,0,0,0-3.88,2v-6.21h-2.9v16.4h2.9v-1.61a4.79,4.79,0,0,0,3.88,1.85c2.75,0,5.54-2.12,5.54-6.18v0C312.9,129.44,310.11,127.32,307.36,127.32ZM310,133.5v0a3.34,3.34,0,0,1-3.24,3.64,3.4,3.4,0,0,1-3.3-3.64v0a3.29,3.29,0,1,1,6.54,0Z"/><path class="cls-5" d="M320.41,127.32a5.89,5.89,0,0,0-5.83,6.2v0a6,6,0,0,0,6.12,6.18,6.06,6.06,0,0,0,4.87-2.23l.07-.08-1.73-1.54-.07.07a4.15,4.15,0,0,1-3.09,1.37,3.15,3.15,0,0,1-3.24-2.75h8.57v-.16c0-.24,0-.47,0-.7C326.13,130.53,324.36,127.32,320.41,127.32Zm0,2.41a2.89,2.89,0,0,1,2.85,2.86h-5.76A3,3,0,0,1,320.39,129.73Z"/><path class="cls-5" d="M331.74,124.35h-2.9v3.21h-1.48v2.52h1.48v6.05c0,2.35,1.17,3.55,3.48,3.55a4.74,4.74,0,0,0,2.47-.61l.06,0V136.6l-.16.08a3.48,3.48,0,0,1-1.61.39c-.91,0-1.33-.43-1.33-1.35v-5.63h3.15v-2.52h-3.15Z"/><path class="cls-5" d="M340.84,124.35h-2.9v3.21h-1.48v2.52h1.48v6.05c0,2.35,1.17,3.55,3.48,3.55a4.74,4.74,0,0,0,2.47-.61l.06,0V136.6l-.16.08a3.48,3.48,0,0,1-1.61.39c-.91,0-1.33-.43-1.33-1.35v-5.63H344v-2.52h-3.15Z"/><path class="cls-5" d="M351.13,127.32a5.89,5.89,0,0,0-5.83,6.2v0a6,6,0,0,0,6.12,6.18,6.06,6.06,0,0,0,4.87-2.23l.07-.08-1.73-1.54-.07.07a4.15,4.15,0,0,1-3.09,1.37,3.15,3.15,0,0,1-3.24-2.75h8.57v-.16c0-.24,0-.47,0-.7C356.84,130.53,355.08,127.32,351.13,127.32Zm0,2.41a2.89,2.89,0,0,1,2.85,2.86H348.2A3,3,0,0,1,351.11,129.73Z"/><path class="cls-5" d="M366.37,127.34h-.32a4.14,4.14,0,0,0-3.82,2.47v-2.25h-2.9v11.92h2.9v-4.56c0-2.87,1.41-4.52,3.88-4.52h.26Z"/><rect class="cls-5" x="366.31" y="136.2" width="3.17" height="3.28"/></g><g id="reg"><path class="cls-2" d="M464.88,4.38v0a3.26,3.26,0,0,1,6.53,0v0a3.26,3.26,0,0,1-6.53,0Zm6.15,0v0a2.89,2.89,0,1,0-5.77,0v0a2.84,2.84,0,0,0,2.88,2.88A2.87,2.87,0,0,0,471,4.36ZM466.8,2.53h1.54a1.47,1.47,0,0,1,1.07.38,1.05,1.05,0,0,1,.29.76v0A1.08,1.08,0,0,1,469,4.76L469.8,6h-.89l-.74-1.12h-.6V6h-.77Zm1.53,1.7c.39,0,.6-.21.6-.5v0c0-.33-.24-.5-.61-.5h-.75v1Z"/></g></g></g></svg>